<?xml version="1.0" encoding="UTF-8" standalone="no"?>
<!-- Created with Inkscape (http://www.inkscape.org/) -->

<svg
   width="210mm"
   height="297mm"
   viewBox="0 0 210 297"
   version="1.1"
   id="svg1"
   inkscape:version="1.3.2 (091e20e, 2023-11-25, custom)"
   sodipodi:docname="balloon.svg"
   xmlns:inkscape="http://www.inkscape.org/namespaces/inkscape"
   xmlns:sodipodi="http://sodipodi.sourceforge.net/DTD/sodipodi-0.dtd"
   xmlns="http://www.w3.org/2000/svg"
   xmlns:svg="http://www.w3.org/2000/svg">
  <sodipodi:namedview
     id="namedview1"
     pagecolor="#ffffff"
     bordercolor="#000000"
     borderopacity="0.25"
     inkscape:showpageshadow="2"
     inkscape:pageopacity="0.0"
     inkscape:pagecheckerboard="0"
     inkscape:deskcolor="#d1d1d1"
     inkscape:document-units="mm"
     inkscape:zoom="0.73139031"
     inkscape:cx="276.18632"
     inkscape:cy="505.20221"
     inkscape:window-width="1920"
     inkscape:window-height="1017"
     inkscape:window-x="1912"
     inkscape:window-y="-8"
     inkscape:window-maximized="1"
     inkscape:current-layer="layer1" />
  <defs
     id="defs1">
    <inkscape:path-effect
       effect="spiro"
       id="path-effect3"
       is_visible="true"
       lpeversion="1" />
  </defs>
  <g
     inkscape:label="Layer 1"
     inkscape:groupmode="layer"
     id="layer1">
    <g
       id="g10"
       style="display:inline">
      <rect
         style="fill:#784421;stroke-width:0.0814064"
         id="rect2"
         width="22.162914"
         height="23.616947"
         x="94.11013"
         y="207.52739"
         ry="1.2533803" />
      <g
         id="g9">
        <path
           style="fill:none;stroke:#800000;stroke-width:0.128948"
           d="m 90.27178,190.1151 c 3.966856,18.15939 3.966856,18.15939 3.966856,18.15939 v 0"
           id="path7" />
        <path
           style="fill:none;stroke:#800000;stroke-width:0.128311"
           d="m 120.07381,190.12069 c -3.94727,18.06976 -3.94727,18.06976 -3.94727,18.06976 v 0"
           id="path8" />
      </g>
    </g>
    <path
       d="m 39.620837,86.348735 c 10.641226,1.910129 21.31936,3.211594 31.892627,3.86798 -0.120279,-20.211006 2.323324,-40.894914 6.688481,-61.162674 A 65.580635,65.580634 0 0 0 39.620837,86.348735 Z"
       style="display:inline;fill:#aa0000;stroke-width:0.337417"
       id="path39" />
    <path
       d="M 91.617664,190.12069 C 81.128742,162.23796 73.59573,130.37658 71.892253,102.21133 61.366844,101.60127 50.783189,100.35048 40.251807,98.553158 a 65.580635,65.580634 0 0 0 25.231018,42.295612 l 6.851261,13.61829 17.940507,35.65363 z"
       style="display:inline;fill:#aa0000;stroke-width:0.337417"
       id="path37" />
    <path
       d="m 170.55393,88.403389 c -10.52831,3.319449 -21.33879,6.180409 -32.14377,8.44548 -0.007,0.205364 -0.004,0.412806 -0.0119,0.61805 -1.0927,29.288991 -8.88503,63.195231 -19.96674,92.653771 h 1.64228 l 17.84129,-35.82106 6.75876,-13.56765 a 65.580635,65.580634 0 0 0 25.90643,-52.012331 65.580635,65.580634 0 0 0 -0.0264,-0.31626 z"
       style="display:inline;fill:#aa0000;stroke-width:0.337417"
       id="path33" />
    <path
       d="m 131.81159,28.888159 c 3.98389,18.452238 6.35473,37.248586 6.6735,55.724247 10.35111,-2.263742 20.71559,-5.112292 30.77176,-8.354528 A 65.580635,65.580634 0 0 0 131.81159,28.888159 Z"
       style="display:inline;fill:#aa0000;stroke-width:0.337417"
       id="path31" />
    <path
       d="m 105.62869,190.12069 c 11.21908,-28.54056 19.33707,-62.51561 20.7269,-90.963952 -10.72922,1.803172 -21.28507,2.976132 -31.29731,3.349662 -3.707498,0.13832 -7.440091,0.15319 -11.181746,0.11421 1.851964,27.7106 9.780703,60.114 20.546036,87.50008 z"
       style="display:inline;fill:#aa0000;stroke-width:0.337417"
       id="path35" />
    <path
       d="m 105.00031,23.138639 a 65.580635,65.580634 0 0 0 -13.590902,1.607137 c -5.216165,21.887038 -8.114593,44.327261 -7.934917,65.929309 3.734534,0.04733 7.454971,0.03717 11.138339,-0.100252 10.08063,-0.376085 20.91199,-1.645317 31.97893,-3.605981 -0.16313,-20.51041 -3.0456,-41.702359 -7.98815,-62.392058 a 65.580635,65.580634 0 0 0 -13.6033,-1.438155 z"
       style="display:inline;fill:#aa0000;stroke-width:0.337417"
       id="path29" />
    <path
       d="m 78.201945,29.054041 c -4.365157,20.26776 -6.80876,40.951668 -6.688481,61.162674 4.006408,0.248718 7.99563,0.40811 11.961027,0.45837 -0.179676,-21.602048 2.718752,-44.042271 7.934917,-65.929309 a 65.580635,65.580634 0 0 0 -13.207463,4.308265 z"
       style="fill:#00ffff"
       id="path40" />
    <path
       d="M 104.42257,190.12069 C 93.657237,162.73461 85.728498,130.33121 83.876534,102.62061 c -3.981515,-0.0415 -7.977266,-0.17703 -11.984281,-0.40928 1.703477,28.16525 9.236489,60.02663 19.725411,87.90936 z"
       style="fill:#00ffff"
       id="path36" />
    <path
       d="m 118.43153,190.12069 c 11.08171,-29.45854 18.87404,-63.36478 19.96674,-92.653771 0.008,-0.205244 0.005,-0.412686 0.0119,-0.61805 -4.03011,0.84484 -8.05501,1.635696 -12.05457,2.307869 -1.38983,28.448342 -9.50782,62.423392 -20.7269,90.963952 z"
       style="fill:#00ffff"
       id="path34" />
    <path
       d="m 118.60361,24.576794 c 4.94255,20.689699 7.82502,41.881648 7.98815,62.392058 3.94286,-0.698534 7.91204,-1.485756 11.89333,-2.356446 -0.31877,-18.475661 -2.68961,-37.272009 -6.6735,-55.724247 a 65.580635,65.580634 0 0 0 -13.20798,-4.311365 z"
       style="fill:#00ffff"
       id="path30" />
    <path
       d="m 126.59176,86.968852 c 0.0268,3.36956 -9.3e-4,6.72539 -0.12506,10.052616 -0.0262,0.702846 -0.0764,1.425351 -0.11111,2.13527 3.99956,-0.672173 8.02446,-1.463029 12.05457,-2.307869 0.14027,-4.056662 0.1456,-8.140349 0.0749,-12.236463 -3.98129,0.87069 -7.95047,1.657912 -11.89333,2.356446 z"
       style="fill:#00ffff"
       id="path43" />
    <path
       d="m 83.474491,90.675085 c -3.965397,-0.05026 -7.954619,-0.209652 -11.961027,-0.45837 0.01442,2.422891 0.04712,4.842552 0.136943,7.250204 0.05845,1.566736 0.145573,3.152641 0.241846,4.744411 4.007015,0.23225 8.002766,0.3678 11.984281,0.40928 -0.126235,-1.88883 -0.22583,-3.757002 -0.294556,-5.599142 -0.07846,-2.103062 -0.08985,-4.225637 -0.107487,-6.346383 z"
       style="fill:#00ffff"
       id="path42" />
    <path
       d="m 83.474491,90.675085 c 0.01764,2.120746 0.02903,4.243321 0.107487,6.346383 0.06873,1.84214 0.168321,3.710312 0.294556,5.599142 3.741655,0.039 7.474248,0.0241 11.181746,-0.11421 10.01224,-0.37353 20.56809,-1.54649 31.29731,-3.349662 0.0347,-0.709919 0.0849,-1.432424 0.11111,-2.13527 0.12413,-3.327226 0.15186,-6.683056 0.12506,-10.052616 -11.06694,1.960664 -21.8983,3.229896 -31.97893,3.605981 -3.683368,0.137417 -7.403805,0.147586 -11.138339,0.100252 z"
       style="fill:#00ffff"
       id="path41" />
    <path
       d="m 40.251807,98.553158 c 10.531382,1.797322 21.115037,3.048112 31.640446,3.658172 -0.09627,-1.59177 -0.183395,-3.177675 -0.241846,-4.744411 -0.08982,-2.407652 -0.122524,-4.827313 -0.136943,-7.250204 -10.573267,-0.656386 -21.251401,-1.957851 -31.892627,-3.86798 a 65.580635,65.580634 0 0 0 -0.201538,2.370914 65.580635,65.580634 0 0 0 0.02377,0.332796 h -0.02377 l 0.02739,0.05426 a 65.580635,65.580634 0 0 0 0.805119,9.446452 z"
       style="fill:#00ffff"
       id="path38" />
    <path
       d="m 169.25685,76.257878 c -10.05617,3.242236 -20.42065,6.090786 -30.77176,8.354528 0.0707,4.096114 0.0653,8.179801 -0.0749,12.236463 10.80498,-2.265071 21.61546,-5.126031 32.14377,-8.44548 a 65.580635,65.580634 0 0 0 -1.29708,-12.145511 z"
       style="fill:#00ffff"
       id="path32" />
  </g>
</svg>
