<?xml version="1.0" encoding="UTF-8" standalone="no"?>
<!-- Created with Inkscape (http://www.inkscape.org/) -->

<svg
   width="210mm"
   height="297mm"
   viewBox="0 0 210 297"
   version="1.1"
   id="svg1"
   sodipodi:docname="BeanBliss Coffee Shop Logo.svg"
   inkscape:version="1.3.2 (091e20e, 2023-11-25, custom)"
   xmlns:inkscape="http://www.inkscape.org/namespaces/inkscape"
   xmlns:sodipodi="http://sodipodi.sourceforge.net/DTD/sodipodi-0.dtd"
   xmlns="http://www.w3.org/2000/svg"
   xmlns:svg="http://www.w3.org/2000/svg"
   xmlns:rdf="http://www.w3.org/1999/02/22-rdf-syntax-ns#"
   xmlns:cc="http://creativecommons.org/ns#">
  <sodipodi:namedview
     id="namedview1"
     pagecolor="#ffffff"
     bordercolor="#000000"
     borderopacity="0.25"
     inkscape:showpageshadow="2"
     inkscape:pageopacity="0.0"
     inkscape:pagecheckerboard="0"
     inkscape:deskcolor="#d1d1d1"
     inkscape:document-units="mm"
     inkscape:zoom="0.7313903"
     inkscape:cx="259.09559"
     inkscape:cy="501.10044"
     inkscape:window-width="1920"
     inkscape:window-height="1017"
     inkscape:window-x="1912"
     inkscape:window-y="-8"
     inkscape:window-maximized="1"
     inkscape:current-layer="layer1" />
  <defs
     id="defs1">
    <inkscape:path-effect
       effect="fillet_chamfer"
       id="path-effect410"
       is_visible="true"
       lpeversion="1"
       nodesatellites_param="F,0,0,1,0,1.0178092,0,1 @ F,0,0,1,0,0,0,1 @ F,0,0,1,0,1.388072,0,1"
       radius="0"
       unit="px"
       method="auto"
       mode="F"
       chamfer_steps="1"
       flexible="false"
       use_knot_distance="true"
       apply_no_radius="true"
       apply_with_radius="true"
       only_selected="false"
       hide_knots="false" />
  </defs>
  <g
     inkscape:label="Layer 1"
     inkscape:groupmode="layer"
     id="layer1">
    <g
       id="g412"
       transform="translate(0.68184,57.659993)">
      <g
         id="g411">
        <g
           id="g410">
          <g
             id="g14"
             transform="translate(0,-3.3253828)"
             style="display:inline">
            <path
               id="circle2"
               style="fill:#ffffff;stroke:#000000;stroke-width:1;stroke-dasharray:none"
               d="m 163.83043,99.26558 c -3.67885,2.84115 -18.00819,-0.912849 -20.84934,-4.591692 -2.84115,-3.678846 -2.16207,-8.96435 1.51678,-11.805501 3.67885,-2.841151 16.38031,-8.492758 19.22146,-4.813903 1.40463,1.818789 2.34674,6.329222 2.49578,10.768621 0.15242,4.54013 -0.52462,9.005966 -2.38468,10.442475 z m 4.5495,5.8909 c -6.9323,5.35377 -25.93598,0.9992 -31.28974,-5.9331 -5.35376,-6.932299 -4.07411,-16.89212 2.85819,-22.245884 6.9323,-5.353768 24.30808,-10.404811 29.66185,-3.472505 2.54614,3.296858 3.96015,9.405787 3.99732,15.482267 0.041,6.700526 -1.59218,13.361592 -5.22762,16.169222 z"
               sodipodi:nodetypes="ssssssssssss" />
            <path
               id="path1"
               style="fill:#ffffff;stroke:#000000;stroke-width:1;stroke-dasharray:none"
               d="m 61.55221,80.851161 c 1.21051,21.453399 18.955145,38.348769 40.55992,38.386999 21.48056,-0.038 39.14525,-16.73988 40.53741,-38.017423 0.05,-0.76494 -0.55411,-1.386372 -1.32072,-1.386372 H 62.525183 c -0.56212,0 -1.00464,0.455582 -0.972973,1.016796 z"
               inkscape:path-effect="#path-effect410"
               inkscape:original-d="M 61.507374,79.834365 A 40.697323,40.697323 0 0 0 102.11213,119.23816 40.697323,40.697323 0 0 0 142.71689,79.834365 Z"
               transform="matrix(0.99966083,0,0,1.0561347,0.03462936,-6.7071532)" />
          </g>
          <g
             id="g15"
             style="display:inline">
            <path
               style="fill:#d1a585;fill-opacity:1;stroke:none;stroke-width:1;stroke-linecap:butt;stroke-linejoin:miter;stroke-dasharray:none;paint-order:normal"
               id="path12"
               d="m 90.768047,72.059709 c -0.686893,-0.922589 -1.29182,-1.897573 -1.869244,-2.891102 -0.644107,-1.198245 -1.316355,-2.413201 -1.610146,-3.755236 -0.201072,-0.918515 -0.1671,-1.217997 -0.19627,-2.153553 0.117213,-2.385967 1.258848,-4.479681 2.483773,-6.468369 1.419066,-2.073092 2.935584,-4.071339 4.254937,-6.21103 0.803156,-1.594263 1.507691,-3.279741 1.762037,-5.061 0.171532,-1.20128 0.112168,-1.824559 0.09283,-3.041716 -0.206894,-3.179477 -1.274691,-6.182289 -2.433254,-9.11909 -0.453168,-1.147209 -0.931444,-2.284211 -1.404498,-3.423285 0,0 -3.411225,-1.5685 -3.411225,-1.5685 v 0 c 0.500583,1.147281 1.008885,2.29139 1.481449,3.450646 1.188112,2.892462 2.27034,5.856713 2.503747,9.003852 0.01963,1.206646 0.0779,1.762078 -0.09109,2.949692 -0.247486,1.739241 -0.912365,3.391138 -1.72552,4.935458 -1.311447,2.144318 -2.824927,4.144764 -4.251859,6.211988 -1.26256,2.044335 -2.444377,4.195392 -2.61171,6.643161 0.01119,0.978408 -0.02775,1.267058 0.151429,2.232411 0.253685,1.36674 0.899721,2.602444 1.535721,3.823372 0.520903,0.977921 1.077084,1.932823 1.699649,2.850012 z" />
            <path
               style="fill:#d1a585;fill-opacity:1;stroke:none;stroke-width:1;stroke-linecap:butt;stroke-linejoin:miter;stroke-dasharray:none;paint-order:normal"
               id="path13"
               d="M 99.942241,69.705894 C 99.261196,69.139873 98.73023,68.421511 98.257248,67.679495 97.4737,66.300542 97.488935,65.193351 97.743033,63.665004 c 0.400269,-1.828149 1.223134,-3.516164 2.129157,-5.139928 0.9494,-1.669352 2.17012,-3.158276 3.24554,-4.745366 1.07282,-1.59263 1.95134,-3.328937 2.49609,-5.175874 0.10915,-0.370075 0.18368,-0.749496 0.27553,-1.124244 0.50499,-2.024216 0.113,-3.858381 -0.55702,-5.776097 -0.35697,-0.918493 -0.17505,-0.472565 -0.54378,-1.338583 0,0 -3.49802,-1.602576 -3.49802,-1.602576 v 0 c 0.39435,0.859473 0.1994,0.416404 0.58283,1.330103 0.71911,1.848085 1.17126,3.61845 0.71705,5.607307 -0.0854,0.364691 -0.15279,0.734057 -0.25613,1.09407 -0.52234,1.819704 -1.40101,3.517397 -2.448752,5.085641 -1.10476,1.582534 -2.385465,3.045772 -3.306427,4.751001 -0.924067,1.659951 -1.740908,3.392067 -2.190556,5.246852 -0.32252,1.571103 -0.409993,2.75505 0.318198,4.228552 0.431946,0.764963 0.951399,1.476457 1.561111,2.110997 z" />
            <path
               style="fill:#d1a585;fill-opacity:1;stroke:none;stroke-width:1;stroke-linecap:butt;stroke-linejoin:miter;stroke-dasharray:none;paint-order:normal"
               id="path14"
               d="m 111.99093,68.4727 c -0.40768,-0.948727 -0.66058,-1.948236 -0.84515,-2.961074 -0.27735,-1.605126 0.1237,-2.586225 0.82911,-4.000772 0.98253,-1.749076 2.04438,-3.453085 3.09976,-5.159058 1.23904,-1.917864 2.32327,-3.926472 3.28809,-5.994177 0.93342,-1.952411 1.51399,-4.031441 1.95679,-6.141204 0.26821,-1.715331 0.39274,-3.495228 0.0786,-5.215798 -0.0732,-0.400962 -0.18732,-0.793363 -0.28099,-1.190048 -0.63449,-2.412251 -1.69033,-4.669538 -2.82836,-6.877627 -0.1683,-0.31792 -0.33661,-0.635838 -0.50491,-0.953759 0,0 -3.43083,-1.53956 -3.43083,-1.53956 v 0 c 0.17525,0.319545 0.35049,0.63909 0.52573,0.958636 1.16154,2.172832 2.22165,4.408548 2.87116,6.794825 0.0919,0.380841 0.20323,0.757499 0.2756,1.142521 0.31577,1.680051 0.21578,3.421126 -0.0297,5.100902 -0.42594,2.08524 -0.98433,4.142655 -1.90017,6.07337 -0.95129,2.058382 -2.02374,4.055446 -3.26873,5.953199 -1.06487,1.713183 -2.16325,3.406966 -3.16263,5.15978 -0.7621,1.470382 -1.24624,2.499439 -0.98428,4.194738 0.15449,1.008346 0.37648,2.00886 0.72323,2.970205 z"
               inkscape:label="path14" />
          </g>
        </g>
        <g
           id="g318"
           style="display:inline">
          <path
             id="use271"
             style="fill:#6d4528;fill-opacity:1;stroke:#220a00;stroke-width:1;stroke-dasharray:none;stroke-opacity:1"
             d="m 50.712714,100.68386 11.759361,0.53272 m -5.675909,-4.764419 a 6.8353162,4.5026684 2.593845 0 1 6.624536,4.807389 6.8353162,4.5026684 2.593845 0 1 -7.032078,4.18872 6.8353162,4.5026684 2.593845 0 1 -6.624544,-4.80739 6.8353162,4.5026684 2.593845 0 1 7.032086,-4.188719 z" />
          <path
             id="use273"
             style="fill:#6d4528;fill-opacity:1;stroke:#220a00;stroke-width:1;stroke-dasharray:none;stroke-opacity:1"
             d="m 63.189561,106.64137 -10.641958,5.0314 m 7.245535,1.55494 a 4.5026684,6.8353162 64.6957 0 1 -8.104022,-1.14906 4.5026684,6.8353162 64.6957 0 1 4.254909,-6.99222 4.5026684,6.8353162 64.6957 0 1 8.104029,1.14905 4.5026684,6.8353162 64.6957 0 1 -4.254916,6.99223 z" />
          <path
             id="use274"
             style="fill:#6d4528;fill-opacity:1;stroke:#220a00;stroke-width:1;stroke-dasharray:none;stroke-opacity:1"
             d="m 57.365397,96.194841 3.045549,11.370619 m 2.826585,-6.85026 a 6.8353162,4.5026684 75.005642 0 1 -2.580901,7.76753 6.8353162,4.5026684 75.005642 0 1 -6.117816,-5.43763 6.8353162,4.5026684 75.005642 0 1 2.580897,-7.767533 6.8353162,4.5026684 75.005642 0 1 6.11782,5.437633 z" />
          <path
             id="use275"
             style="fill:#6d4528;fill-opacity:1;stroke:#220a00;stroke-width:1;stroke-dasharray:none;stroke-opacity:1"
             d="m 58.655396,109.68871 9.753425,6.59067 m -2.355721,-7.0261 a 6.8353162,4.5026684 34.048063 0 1 3.142528,7.55777 6.8353162,4.5026684 34.048063 0 1 -8.184509,-0.0962 6.8353162,4.5026684 34.048063 0 1 -3.142537,-7.55778 6.8353162,4.5026684 34.048063 0 1 8.184518,0.0962 z" />
          <path
             id="use276"
             style="fill:#6d4528;fill-opacity:1;stroke:#220a00;stroke-width:1;stroke-dasharray:none;stroke-opacity:1"
             d="m 62.550879,113.1261 10.431796,-5.4538 m -7.302025,-1.26335 a 4.5026684,6.8353162 62.39916 0 1 8.143557,0.82339 4.5026684,6.8353162 62.39916 0 1 -3.971303,7.15711 4.5026684,6.8353162 62.39916 0 1 -8.143563,-0.82339 4.5026684,6.8353162 62.39916 0 1 3.971309,-7.15711 z" />
          <path
             id="use277"
             style="fill:#6d4528;fill-opacity:1;stroke:#220a00;stroke-width:1;stroke-dasharray:none;stroke-opacity:1"
             d="m 58.471056,104.50722 9.480566,-6.977475 m -7.409228,-0.137658 a 4.5026684,6.8353162 53.64778 0 1 8.174025,-0.425215 4.5026684,6.8353162 53.64778 0 1 -2.836135,7.678008 4.5026684,6.8353162 53.64778 0 1 -8.17403,0.42522 4.5026684,6.8353162 53.64778 0 1 2.83614,-7.678013 z" />
          <path
             id="use278"
             style="fill:#6d4528;fill-opacity:1;stroke:#220a00;stroke-width:1;stroke-dasharray:none;stroke-opacity:1"
             d="m 93.306709,109.14297 9.886641,6.38911 m -2.49943,-6.97628 a 6.8353162,4.5026684 32.87204 0 1 3.29698,7.49169 6.8353162,4.5026684 32.87204 0 1 -8.18476,0.0718 6.8353162,4.5026684 32.87204 0 1 -3.296991,-7.4917 6.8353162,4.5026684 32.87204 0 1 8.184771,-0.0717 z" />
          <path
             id="use279"
             style="fill:#6d4528;fill-opacity:1;stroke:#220a00;stroke-width:1;stroke-dasharray:none;stroke-opacity:1"
             d="m 62.136276,111.72459 9.132241,-7.42755 m -7.407222,0.22061 a 4.5026684,6.8353162 50.87741 0 1 8.14392,-0.81979 4.5026684,6.8353162 50.87741 0 1 -2.461717,7.80611 4.5026684,6.8353162 50.87741 0 1 -8.143925,0.81981 4.5026684,6.8353162 50.87741 0 1 2.461722,-7.80613 z" />
          <path
             id="use280"
             style="fill:#6d4528;fill-opacity:1;stroke:#220a00;stroke-width:1;stroke-dasharray:none;stroke-opacity:1"
             d="m 74.323763,99.024538 -5.552482,10.379612 m 6.74653,-3.06594 a 4.5026684,6.8353162 28.144165 0 1 -7.194448,3.90326 4.5026684,6.8353162 28.144165 0 1 -0.74613,-8.151 4.5026684,6.8353162 28.144165 0 1 7.194452,-3.903261 4.5026684,6.8353162 28.144165 0 1 0.746126,8.151001 z" />
          <path
             id="use281"
             style="fill:#6d4528;fill-opacity:1;stroke:#220a00;stroke-width:1;stroke-dasharray:none;stroke-opacity:1"
             d="m 73.081143,112.29526 1.145662,11.71554 m 3.908462,-6.296 a 6.8353162,4.5026684 84.41481 0 1 -3.816042,7.24109 6.8353162,4.5026684 84.41481 0 1 -5.146543,-6.36464 6.8353162,4.5026684 84.41481 0 1 3.81604,-7.24109 6.8353162,4.5026684 84.41481 0 1 5.146545,6.36464 z" />
          <path
             id="use282"
             style="fill:#6d4528;fill-opacity:1;stroke:#220a00;stroke-width:1;stroke-dasharray:none;stroke-opacity:1"
             d="m 121.83822,113.74871 -11.15317,-3.76472 m 4.13654,6.14854 a 6.8353162,4.5026684 18.65198 0 1 -5.03627,-6.45224 6.8353162,4.5026684 18.65198 0 1 7.91635,-2.08012 6.8353162,4.5026684 18.65198 0 1 5.03628,6.45224 6.8353162,4.5026684 18.65198 0 1 -7.91636,2.08012 z" />
          <path
             id="use283"
             style="fill:#6d4528;fill-opacity:1;stroke:#220a00;stroke-width:1;stroke-dasharray:none;stroke-opacity:1"
             d="m 72.0657,109.41092 8.483414,8.16076 m -1.120146,-7.32536 a 6.8353162,4.5026684 43.889443 0 1 1.804502,7.98369 6.8353162,4.5026684 43.889443 0 1 -8.047623,-1.49373 6.8353162,4.5026684 43.889443 0 1 -1.804509,-7.98369 6.8353162,4.5026684 43.889443 0 1 8.04763,1.49373 z" />
          <path
             id="use284"
             style="fill:#6d4528;fill-opacity:1;stroke:#220a00;stroke-width:1;stroke-dasharray:none;stroke-opacity:1"
             d="m 84.722239,112.81982 -10.586543,-5.14699 m 3.324505,6.62294 a 6.8353162,4.5026684 25.92819 0 1 -4.17852,-7.03815 6.8353162,4.5026684 25.92819 0 1 8.116052,-1.06074 6.8353162,4.5026684 25.92819 0 1 4.178528,7.03815 6.8353162,4.5026684 25.92819 0 1 -8.11606,1.06074 z" />
          <path
             id="use285"
             style="fill:#6d4528;fill-opacity:1;stroke:#220a00;stroke-width:1;stroke-dasharray:none;stroke-opacity:1"
             d="m 85.044419,107.72141 -7.178391,-9.329362 m 0.02063,7.410482 a 6.8353162,4.5026684 52.42386 0 1 -0.599714,-8.163081 6.8353162,4.5026684 52.42386 0 1 7.736836,2.671491 6.8353162,4.5026684 52.42386 0 1 0.59972,8.16308 6.8353162,4.5026684 52.42386 0 1 -7.736842,-2.67149 z" />
          <path
             id="use286"
             style="fill:#6d4528;fill-opacity:1;stroke:#220a00;stroke-width:1;stroke-dasharray:none;stroke-opacity:1"
             d="M 80.950185,120.11735 75.1896,109.85178 m -1.046377,7.33626 a 6.8353162,4.5026684 60.70079 0 1 0.581671,-8.16439 6.8353162,4.5026684 60.70079 0 1 7.271667,3.75744 6.8353162,4.5026684 60.70079 0 1 -0.581666,8.16439 6.8353162,4.5026684 60.70079 0 1 -7.271672,-3.75744 z" />
          <path
             id="use287"
             style="fill:#6d4528;fill-opacity:1;stroke:#220a00;stroke-width:1;stroke-dasharray:none;stroke-opacity:1"
             d="m 84.496292,110.72891 9.588166,-6.82887 m -7.406182,-0.25312 a 4.5026684,6.8353162 54.54084 0 1 8.179659,-0.29776 4.5026684,6.8353162 54.54084 0 1 -2.955461,7.63287 4.5026684,6.8353162 54.54084 0 1 -8.179665,0.29777 4.5026684,6.8353162 54.54084 0 1 2.955467,-7.63288 z" />
          <path
             id="use288"
             style="fill:#6d4528;fill-opacity:1;stroke:#220a00;stroke-width:1;stroke-dasharray:none;stroke-opacity:1"
             d="m 81.414895,120.94548 10.595377,-5.12877 m -7.259488,-1.48844 a 4.5026684,6.8353162 64.17034 0 1 8.114218,1.0747 4.5026684,6.8353162 64.17034 0 1 -4.190619,7.03095 4.5026684,6.8353162 64.17034 0 1 -8.114223,-1.0747 4.5026684,6.8353162 64.17034 0 1 4.190624,-7.03095 z" />
          <path
             id="use289"
             style="fill:#6d4528;fill-opacity:1;stroke:#220a00;stroke-width:1;stroke-dasharray:none;stroke-opacity:1"
             d="m 107.59167,109.74244 -10.886444,4.47792 m 7.156064,1.92519 a 4.5026684,6.8353162 67.641183 0 1 -8.034273,-1.56396 4.5026684,6.8353162 67.641183 0 1 4.608593,-6.76435 4.5026684,6.8353162 67.641183 0 1 8.03427,1.56396 4.5026684,6.8353162 67.641183 0 1 -4.60859,6.76435 z" />
          <path
             id="use290"
             style="fill:#6d4528;fill-opacity:1;stroke:#220a00;stroke-width:1;stroke-dasharray:none;stroke-opacity:1"
             d="m 96.511223,113.81992 -11.760439,0.50835 m 6.074667,4.24429 a 4.5026684,6.8353162 87.524906 0 1 -7.023381,-4.20328 4.5026684,6.8353162 87.524906 0 1 6.634485,-4.79365 4.5026684,6.8353162 87.524906 0 1 7.023389,4.20328 4.5026684,6.8353162 87.524906 0 1 -6.634493,4.79365 z" />
          <path
             id="use291"
             style="fill:#6d4528;fill-opacity:1;stroke:#220a00;stroke-width:1;stroke-dasharray:none;stroke-opacity:1"
             d="m 98.250028,112.33752 7.796702,-8.81917 m -7.271756,1.42728 a 4.5026684,6.8353162 41.47873 0 1 7.900716,-2.13872 4.5026684,6.8353162 41.47873 0 1 -1.1539,8.10333 4.5026684,6.8353162 41.47873 0 1 -7.900727,2.13873 4.5026684,6.8353162 41.47873 0 1 1.153911,-8.10334 z" />
          <path
             id="use292"
             style="fill:#6d4528;fill-opacity:1;stroke:#220a00;stroke-width:1;stroke-dasharray:none;stroke-opacity:1"
             d="M 108.58925,124.90036 104.75762,113.77 m -2.34165,7.03081 a 6.8353162,4.5026684 71.00396 0 1 2.03255,-7.9287 6.8353162,4.5026684 71.00396 0 1 6.48237,4.99744 6.8353162,4.5026684 71.00396 0 1 -2.03254,7.9287 6.8353162,4.5026684 71.00396 0 1 -6.48238,-4.99744 z" />
          <path
             id="use293"
             style="fill:#6d4528;fill-opacity:1;stroke:#220a00;stroke-width:1;stroke-dasharray:none;stroke-opacity:1"
             d="m 98.948047,115.96349 8.329223,8.31807 m -0.98288,-7.34504 a 6.8353162,4.5026684 44.961608 0 1 1.6548,8.01606 6.8353162,4.5026684 44.961608 0 1 -8.018262,-1.64406 6.8353162,4.5026684 44.961608 0 1 -1.654805,-8.01606 6.8353162,4.5026684 44.961608 0 1 8.018267,1.64406 z" />
          <path
             id="use294"
             style="fill:#6d4528;fill-opacity:1;stroke:#220a00;stroke-width:1;stroke-dasharray:none;stroke-opacity:1"
             d="m 115.04469,116.59052 -11.70864,-1.21417 m 5.38989,5.08574 a 6.8353162,4.5026684 5.920328 0 1 -6.33443,-5.18369 6.8353162,4.5026684 5.920328 0 1 7.26329,-3.77362 6.8353162,4.5026684 5.920328 0 1 6.33443,5.18369 6.8353162,4.5026684 5.920328 0 1 -7.26329,3.77362 z" />
          <path
             id="use295"
             style="fill:#6d4528;fill-opacity:1;stroke:#220a00;stroke-width:1;stroke-dasharray:none;stroke-opacity:1"
             d="m 112.57477,112.32519 -10.21628,5.84756 m 7.34488,0.98403 a 4.5026684,6.8353162 60.214154 0 1 -8.16903,-0.5123 4.5026684,6.8353162 60.214154 0 1 3.69554,-7.30332 4.5026684,6.8353162 60.214154 0 1 8.16904,0.5123 4.5026684,6.8353162 60.214154 0 1 -3.69555,7.30332 z" />
          <path
             id="use296"
             style="fill:#6d4528;fill-opacity:1;stroke:#220a00;stroke-width:1;stroke-dasharray:none;stroke-opacity:1"
             d="m 106.49898,117.21888 -11.3825,3.00084 m 6.83909,2.85349 a 4.5026684,6.8353162 75.230832 0 1 -7.75732,-2.61141 4.5026684,6.8353162 75.230832 0 1 5.46163,-6.0964 4.5026684,6.8353162 75.230832 0 1 7.75733,2.6114 4.5026684,6.8353162 75.230832 0 1 -5.46164,6.09641 z" />
          <path
             id="use297"
             style="fill:#6d4528;fill-opacity:1;stroke:#220a00;stroke-width:1;stroke-dasharray:none;stroke-opacity:1"
             d="m 122.01008,115.67321 -11.03728,4.09203 m 7.08388,2.17584 a 4.5026684,6.8353162 69.657924 0 1 -7.97426,-1.84574 4.5026684,6.8353162 69.657924 0 1 4.84378,-6.59797 4.5026684,6.8353162 69.657924 0 1 7.97427,1.84573 4.5026684,6.8353162 69.657924 0 1 -4.84379,6.59798 z" />
          <path
             id="use298"
             style="fill:#6d4528;fill-opacity:1;stroke:#220a00;stroke-width:1;stroke-dasharray:none;stroke-opacity:1"
             d="m 105.88021,109.89549 7.13152,9.36524 m 0.0165,-7.41049 a 6.8353162,4.5026684 52.711168 0 1 0.55878,8.16599 6.8353162,4.5026684 52.711168 0 1 -7.72335,-2.71025 6.8353162,4.5026684 52.711168 0 1 -0.55878,-8.16599 6.8353162,4.5026684 52.711168 0 1 7.72335,2.71025 z" />
          <path
             id="use299"
             style="fill:#6d4528;fill-opacity:1;stroke:#220a00;stroke-width:1;stroke-dasharray:none;stroke-opacity:1"
             d="m 110.08783,120.4129 8.43527,-8.21051 m -7.35822,0.87869 a 4.5026684,6.8353162 45.77357 0 1 8.0387,-1.54104 4.5026684,6.8353162 45.77357 0 1 -1.75752,7.99417 4.5026684,6.8353162 45.77357 0 1 -8.03871,1.54104 4.5026684,6.8353162 45.77357 0 1 1.75753,-7.99417 z" />
          <path
             id="use300"
             style="fill:#6d4528;fill-opacity:1;stroke:#220a00;stroke-width:1;stroke-dasharray:none;stroke-opacity:1"
             d="m 115.65233,101.04912 8.80504,7.81266 m -1.41411,-7.27433 a 6.8353162,4.5026684 41.582442 0 1 2.12441,7.90458 6.8353162,4.5026684 41.582442 0 1 -8.10123,-1.16857 6.8353162,4.5026684 41.582442 0 1 -2.12442,-7.90459 6.8353162,4.5026684 41.582442 0 1 8.10124,1.16858 z" />
          <path
             id="use301"
             style="fill:#6d4528;fill-opacity:1;stroke:#220a00;stroke-width:1;stroke-dasharray:none;stroke-opacity:1"
             d="m 124.77173,115.68286 -5.38224,-10.4689 m -1.31333,7.2932 a 6.8353162,4.5026684 62.79154 0 1 0.87914,-8.13773 6.8353162,4.5026684 62.79154 0 1 7.12975,4.02023 6.8353162,4.5026684 62.79154 0 1 -0.87913,8.13773 6.8353162,4.5026684 62.79154 0 1 -7.12976,-4.02023 z" />
          <path
             id="use302"
             style="fill:#6d4528;fill-opacity:1;stroke:#220a00;stroke-width:1;stroke-dasharray:none;stroke-opacity:1"
             d="m 123.42837,117.21773 -11.02785,-4.11741 m 3.93898,6.27695 a 6.8353162,4.5026684 20.47387 0 1 -4.82859,-6.6091 6.8353162,4.5026684 20.47387 0 1 7.97848,-1.82739 6.8353162,4.5026684 20.47387 0 1 4.8286,6.6091 6.8353162,4.5026684 20.47387 0 1 -7.97849,1.82739 z" />
          <path
             id="use303"
             style="fill:#6d4528;fill-opacity:1;stroke:#220a00;stroke-width:1;stroke-dasharray:none;stroke-opacity:1"
             d="m 130.40335,101.88875 -4.44836,10.89855 m 6.39297,-3.74774 a 4.5026684,6.8353162 22.203375 0 1 -6.75182,4.62692 4.5026684,6.8353162 22.203375 0 1 -1.58576,-8.02999 4.5026684,6.8353162 22.203375 0 1 6.75182,-4.62693 4.5026684,6.8353162 22.203375 0 1 1.58576,8.03 z" />
          <path
             id="use304"
             style="fill:#6d4528;fill-opacity:1;stroke:#220a00;stroke-width:1;stroke-dasharray:none;stroke-opacity:1"
             d="m 130.76205,110.17682 -2.47359,11.5086 m 5.63893,-4.80813 a 4.5026684,6.8353162 12.130267 0 1 -5.83847,5.73653 4.5026684,6.8353162 12.130267 0 1 -2.9658,-7.62887 4.5026684,6.8353162 12.130267 0 1 5.83848,-5.73653 4.5026684,6.8353162 12.130267 0 1 2.96579,7.62887 z" />
          <path
             id="use305"
             style="fill:#6d4528;fill-opacity:1;stroke:#220a00;stroke-width:1;stroke-dasharray:none;stroke-opacity:1"
             d="m 135.56973,110.45514 -8.8332,7.7808 m 7.39282,-0.51162 a 4.5026684,6.8353162 48.624515 0 1 -8.10539,1.1393 4.5026684,6.8353162 48.624515 0 1 2.15295,-7.89685 4.5026684,6.8353162 48.624515 0 1 8.1054,-1.13931 4.5026684,6.8353162 48.624515 0 1 -2.15296,7.89686 z" />
          <path
             id="use306"
             style="fill:#6d4528;fill-opacity:1;stroke:#220a00;stroke-width:1;stroke-dasharray:none;stroke-opacity:1"
             d="m 124.05261,116.08584 6.00018,-10.1274 m -6.87391,2.76858 a 4.5026684,6.8353162 30.64546 0 1 7.35794,-3.58556 4.5026684,6.8353162 30.64546 0 1 0.38969,8.1758 4.5026684,6.8353162 30.64546 0 1 -7.35794,3.58556 4.5026684,6.8353162 30.64546 0 1 -0.38969,-8.1758 z" />
          <path
             id="use307"
             style="fill:#6d4528;fill-opacity:1;stroke:#220a00;stroke-width:1;stroke-dasharray:none;stroke-opacity:1"
             d="m 131.45155,107.84582 -10.92171,4.39121 m 7.14053,1.98204 a 4.5026684,6.8353162 68.096742 0 1 -8.02158,-1.6278 4.5026684,6.8353162 68.096742 0 1 4.66223,-6.72749 4.5026684,6.8353162 68.096742 0 1 8.02159,1.62779 4.5026684,6.8353162 68.096742 0 1 -4.66224,6.7275 z" />
          <path
             id="use308"
             style="fill:#6d4528;fill-opacity:1;stroke:#220a00;stroke-width:1;stroke-dasharray:none;stroke-opacity:1"
             d="m 128.41672,109.03332 11.34748,-3.13067 m -6.87125,-2.77517 a 4.5026684,6.8353162 74.57626 0 1 7.78665,2.52262 4.5026684,6.8353162 74.57626 0 1 -5.39163,6.15839 4.5026684,6.8353162 74.57626 0 1 -7.78665,-2.52261 4.5026684,6.8353162 74.57626 0 1 5.39163,-6.1584 z" />
          <path
             id="use309"
             style="fill:#6d4528;fill-opacity:1;stroke:#220a00;stroke-width:1;stroke-dasharray:none;stroke-opacity:1"
             d="m 139.25211,97.267258 -8.54085,8.100622 m 7.36898,-0.78336 a 4.5026684,6.8353162 46.515333 0 1 -8.05797,1.43684 4.5026684,6.8353162 46.515333 0 1 1.86086,-7.970738 4.5026684,6.8353162 46.515333 0 1 8.05798,-1.436846 4.5026684,6.8353162 46.515333 0 1 -1.86087,7.970744 z" />
          <path
             id="use310"
             style="fill:#6d4528;fill-opacity:1;stroke:#220a00;stroke-width:1;stroke-dasharray:none;stroke-opacity:1"
             d="m 130.09413,108.4913 9.71761,6.64336 m -2.31766,-7.03875 a 6.8353162,4.5026684 34.358119 0 1 3.10158,7.57467 6.8353162,4.5026684 34.358119 0 1 -8.18387,-0.14053 6.8353162,4.5026684 34.358119 0 1 -3.10159,-7.57468 6.8353162,4.5026684 34.358119 0 1 8.18388,0.14054 z" />
          <path
             id="use311"
             style="fill:#6d4528;fill-opacity:1;stroke:#220a00;stroke-width:1;stroke-dasharray:none;stroke-opacity:1"
             d="m 139.45095,107.17695 0.06,11.77127 m 4.47259,-5.9086 a 6.8353162,4.5026684 89.707778 0 1 -4.46775,6.85818 6.8353162,4.5026684 89.707778 0 1 -4.53747,-6.81225 6.8353162,4.5026684 89.707778 0 1 4.46775,-6.8582 6.8353162,4.5026684 89.707778 0 1 4.53747,6.81227 z" />
          <path
             id="use312"
             style="fill:#6d4528;fill-opacity:1;stroke:#220a00;stroke-width:1;stroke-dasharray:none;stroke-opacity:1"
             d="m 146.0304,111.64568 -11.32858,3.19835 m 6.88769,2.73411 a 4.5026684,6.8353162 74.234228 0 1 -7.80157,-2.47609 4.5026684,6.8353162 74.234228 0 1 5.35477,-6.19048 4.5026684,6.8353162 74.234228 0 1 7.80158,2.47609 4.5026684,6.8353162 74.234228 0 1 -5.35478,6.19048 z" />
          <path
             id="use313"
             style="fill:#6d4528;fill-opacity:1;stroke:#220a00;stroke-width:1;stroke-dasharray:none;stroke-opacity:1"
             d="m 142.81222,109.43315 -5.5655,-10.372639 m -1.18487,7.315169 a 6.8353162,4.5026684 61.78399 0 1 0.73591,-8.151929 6.8353162,4.5026684 61.78399 0 1 7.19933,3.894229 6.8353162,4.5026684 61.78399 0 1 -0.7359,8.15194 6.8353162,4.5026684 61.78399 0 1 -7.19934,-3.89424 z" />
          <path
             id="use314"
             style="fill:#6d4528;fill-opacity:1;stroke:#220a00;stroke-width:1;stroke-dasharray:none;stroke-opacity:1"
             d="m 135.17967,106.7154 10.13237,-5.99178 m -7.35809,-0.879828 a 4.5026684,6.8353162 59.40204 0 1 8.17547,0.396468 4.5026684,6.8353162 59.40204 0 1 -3.59165,7.35497 4.5026684,6.8353162 59.40204 0 1 -8.17548,-0.39647 4.5026684,6.8353162 59.40204 0 1 3.59166,-7.354968 z" />
          <path
             id="use315"
             style="fill:#6d4528;fill-opacity:1;stroke:#220a00;stroke-width:1;stroke-dasharray:none;stroke-opacity:1"
             d="m 144.16405,100.84151 -0.1863,11.76995 m 4.59526,-5.81372 a 4.5026684,6.8353162 0.90680766 0 1 -4.61028,6.7632 4.5026684,6.8353162 0.90680766 0 1 -4.39393,-6.90572 4.5026684,6.8353162 0.90680766 0 1 4.61028,-6.763199 4.5026684,6.8353162 0.90680766 0 1 4.39393,6.905719 z" />
          <path
             id="use316"
             style="fill:#6d4528;fill-opacity:1;stroke:#220a00;stroke-width:1;stroke-dasharray:none;stroke-opacity:1"
             d="m 145.22722,104.5584 -8.92134,7.67959 m 7.39818,-0.4273 a 4.5026684,6.8353162 49.277748 0 1 -8.11786,1.04682 4.5026684,6.8353162 49.277748 0 1 2.24284,-7.8718 4.5026684,6.8353162 49.277748 0 1 8.11787,-1.04682 4.5026684,6.8353162 49.277748 0 1 -2.24285,7.8718 z" />
          <path
             id="use317"
             style="fill:#6d4528;fill-opacity:1;stroke:#220a00;stroke-width:1;stroke-dasharray:none;stroke-opacity:1"
             d="m 148.88354,109.99689 -8.4773,8.16712 m 7.36264,-0.84092 a 4.5026684,6.8353162 46.067661 0 1 -8.0465,1.49976 4.5026684,6.8353162 46.067661 0 1 1.79852,-7.98504 4.5026684,6.8353162 46.067661 0 1 8.04651,-1.49976 4.5026684,6.8353162 46.067661 0 1 -1.79853,7.98504 z" />
          <path
             id="use318"
             style="fill:#6d4528;fill-opacity:1;stroke:#220a00;stroke-width:1;stroke-dasharray:none;stroke-opacity:1"
             d="m 135.57327,102.15531 1.8327,11.62788 m 3.53141,-6.51496 a 6.8353162,4.5026684 81.043157 0 1 -3.38357,7.45298 6.8353162,4.5026684 81.043157 0 1 -5.51195,-6.05094 6.8353162,4.5026684 81.043157 0 1 3.38356,-7.45299 6.8353162,4.5026684 81.043157 0 1 5.51196,6.05095 z" />
        </g>
      </g>
      <path
         style="font-size:12.7px;line-height:0px;font-family:Sans;-inkscape-font-specification:'Sans, Normal';letter-spacing:0px;word-spacing:0px;fill:#d1a585;fill-opacity:0.996078;stroke:none;stroke-width:0.772002"
         d="m 42.554419,129.58238 q -0.668848,0.82593 -1.49354,1.20532 -0.824695,0.37939 -1.684401,0.3608 -1.022718,-0.0155 -1.942954,-0.41531 -0.912797,-0.39422 -2.066116,-1.3282 l -3.928728,-3.18156 8.972208,-11.07931 3.281381,2.65733 q 1.212845,0.98219 1.74324,1.55955 0.530395,0.57737 0.852037,1.30601 0.351039,0.81406 0.216604,1.54299 -0.128415,0.72148 -0.694824,1.42092 -0.638719,0.7887 -1.492446,1.02139 -0.8477,0.22521 -1.788525,0.0178 l -0.04821,0.0597 q 0.936761,1.14054 0.96949,2.42373 0.03876,1.27575 -0.895221,2.42907 z m 1.56544,-6.9993 q 0.325388,-0.4018 0.414402,-0.78558 0.08902,-0.38376 -0.07002,-0.79593 -0.187024,-0.48412 -0.6494,-0.93248 -0.456353,-0.4558 -1.192989,-1.05232 l -1.756023,-1.42207 -2.591034,3.19953 1.904839,1.54257 q 0.691991,0.56038 1.155464,0.82482 0.469499,0.25702 0.999985,0.31699 0.530486,0.06 0.955068,-0.17524 0.438046,-0.23664 0.829714,-0.72029 z m -3.146444,5.81753 q 0.54231,-0.66966 0.660769,-1.22672 0.118456,-0.55705 -0.186886,-1.26018 -0.206516,-0.47525 -0.677751,-0.9431 -0.457766,-0.46928 -1.186961,-1.05979 l -2.31408,-1.87398 -3.338217,4.12219 1.949483,1.57872 q 0.967301,0.78333 1.663219,1.18674 0.701943,0.39596 1.313226,0.44745 0.651685,0.0472 1.146428,-0.16813 0.494743,-0.21538 0.97077,-0.8032 z m 11.289564,6.40207 -6.664226,-4.20491 q -0.526253,0.83404 -0.668645,1.61592 -0.137277,0.77381 0.04963,1.44649 0.175824,0.65434 0.628124,1.21145 0.460395,0.56221 1.156778,1.0016 0.923113,0.58246 2.08424,0.80563 1.174334,0.22019 1.795918,0.11426 l 0.08097,0.0511 -1.047397,1.65998 q -0.97363,-0.16148 -1.913231,-0.44867 -0.939599,-0.28719 -1.822224,-0.84409 -2.251101,-1.42038 -2.747919,-3.43205 -0.491709,-2.01975 0.923555,-4.26276 1.399935,-2.2187 3.42905,-2.76111 2.037212,-0.53732 4.012998,0.70934 1.830029,1.15469 2.1435,2.84689 0.321569,1.69731 -0.919981,3.665 z m -0.746107,-2.10102 q 0.748072,-1.20356 0.562708,-2.23753 -0.177266,-1.02887 -1.391888,-1.79526 -1.222719,-0.77149 -2.406215,-0.51065 -1.175401,0.26595 -1.946992,1.27351 z m 7.876845,11.39699 -1.609886,-0.78359 0.498645,-1.02447 q -0.286461,0.0416 -0.786548,0.1283 -0.487287,0.0823 -0.907072,0.0696 -0.501001,10e-4 -1.089005,-0.12538 -0.592195,-0.1178 -1.298134,-0.46146 -1.299962,-0.63274 -1.78488,-1.93362 -0.484919,-1.30088 0.164576,-2.63528 0.532166,-1.09334 1.323894,-1.53857 0.804529,-0.44964 1.862602,-0.41384 1.066682,0.04 2.364817,0.50148 1.298134,0.46146 2.743535,1.0798 l 0.121513,-0.24967 q 0.268178,-0.55097 0.246164,-1.00892 -0.01344,-0.45377 -0.27442,-0.83637 -0.247983,-0.36562 -0.696566,-0.66916 -0.448582,-0.30352 -0.973732,-0.55914 -0.637067,-0.31008 -1.504294,-0.51921 -0.863035,-0.21775 -1.853152,-0.30567 l -0.08609,-0.0419 0.800344,-1.64432 q 0.536349,0.10132 1.507113,0.38216 0.970762,0.28082 1.840272,0.70403 1.015864,0.49447 1.681045,1.0312 0.677977,0.53231 1.03201,1.20512 0.349616,0.66 0.327822,1.42674 -0.02179,0.76673 -0.474343,1.69651 z m -0.457557,-3.15107 1.303177,-2.67741 q -0.761327,-0.3173 -1.810484,-0.72148 -1.040549,-0.39999 -1.705578,-0.52135 -0.793706,-0.14143 -1.429481,0.0709 -0.631584,0.20372 -0.98776,0.93549 -0.402266,0.82647 -0.108265,1.49134 0.298189,0.65627 1.322662,1.1549 0.852292,0.41485 1.717463,0.43131 0.86936,0.007 1.698266,-0.16371 z m 12.088346,7.48543 -1.69709,-0.59999 2.029774,-5.74122 q 0.245741,-0.6951 0.378327,-1.32863 0.13578,-0.64256 0.04041,-1.06219 -0.09164,-0.45892 -0.452081,-0.78946 -0.357251,-0.33957 -1.034281,-0.57893 -0.695086,-0.24574 -1.574637,-0.17079 -0.879551,0.0749 -1.762933,0.36179 l -2.661683,7.5286 -1.697092,-0.6 3.564869,-10.08325 1.697093,0.59999 -0.395741,1.11936 q 1.02736,-0.37813 2.006754,-0.44825 0.979396,-0.0701 1.873078,0.24586 1.633901,0.57765 2.143604,1.86478 0.509702,1.28715 -0.144549,3.1377 z m 14.922469,-0.92786 q -0.231026,1.03737 -0.800454,1.74435 -0.569427,0.70696 -1.34744,1.0732 -0.922411,0.44198 -1.924601,0.49345 -0.992848,0.0536 -2.441424,-0.26905 l -4.934522,-1.09893 3.099063,-13.91572 4.121448,0.91785 q 1.523349,0.33925 2.255365,0.62 0.732026,0.28072 1.344516,0.78988 0.676855,0.57253 0.881116,1.28504 0.206345,0.70317 0.01063,1.58166 -0.220621,0.99065 -0.88139,1.57918 -0.658676,0.57919 -1.593448,0.81244 l -0.01662,0.0747 q 1.346672,0.60398 1.947463,1.73831 0.602862,1.125 0.280253,2.57359 z m -1.715553,-6.96402 q 0.112383,-0.50468 0.02115,-0.88793 -0.09122,-0.38326 -0.417171,-0.68145 -0.383051,-0.35016 -0.996729,-0.54568 -0.611585,-0.20486 -1.536815,-0.41092 l -2.205578,-0.49117 -0.89496,4.01863 2.392499,0.53282 q 0.869144,0.19356 1.401885,0.22391 0.534825,0.0211 1.03652,-0.16153 0.501684,-0.18255 0.777076,-0.58224 0.286808,-0.40697 0.422095,-1.01444 z m -0.226313,6.61005 q 0.187323,-0.84112 0.04535,-1.39263 -0.14201,-0.55152 -0.728555,-1.04509 -0.39656,-0.33354 -1.02684,-0.54257 -0.618865,-0.2163 -1.534742,-0.42025 l -2.906505,-0.64731 -1.153043,5.17752 2.448571,0.54531 q 1.214942,0.27056 2.01769,0.32181 0.80483,0.0419 1.375078,-0.18423 0.604525,-0.24792 0.951575,-0.66109 0.34706,-0.41317 0.511479,-1.15147 z m 5.342409,5.10027 -1.784517,-0.23585 1.952092,-14.76969 1.784506,0.23585 z m 6.483896,-11.90831 -2.023098,-0.16491 0.1517,-1.86089 2.023098,0.16491 z m -1.128911,12.43471 -1.794071,-0.14621 0.868924,-10.65951 1.794071,0.14621 z m 11.223237,-2.76631 q -0.0123,1.46485 -1.23727,2.39234 -1.2147,0.92756 -3.31145,0.90894 -1.18721,-0.0108 -2.180464,-0.29705 -0.983594,-0.29599 -1.650811,-0.63704 l 0.0179,-2.02016 0.0957,8.5e-4 q 0.846404,0.64903 1.886598,1.04128 1.040277,0.38266 1.997697,0.39117 1.18722,0.0108 1.8608,-0.36647 0.6736,-0.37701 0.68091,-1.2004 0.006,-0.6319 -0.35532,-0.96067 -0.36092,-0.32875 -1.3929,-0.56771 -0.3822,-0.0895 -1.00351,-0.21001 -0.61173,-0.12027 -1.11797,-0.25886 -1.404091,-0.38591 -1.991318,-1.10925 -0.577567,-0.73283 -0.568217,-1.78599 0.006,-0.66063 0.279137,-1.24227 0.28284,-0.58157 0.842227,-1.0362 0.540167,-0.44523 1.365841,-0.69642 0.83534,-0.26067 1.85978,-0.25158 0.95742,0.009 1.93187,0.25653 0.9841,0.23855 1.63218,0.57942 l -0.0171,1.92443 -0.0957,-8.4e-4 q -0.68485,-0.51358 -1.66793,-0.867 -0.983,-0.36301 -1.93084,-0.37143 -0.98616,-0.009 -1.66933,0.36818 -0.683087,0.36736 -0.689717,1.11415 -0.006,0.66061 0.40284,0.99937 0.399147,0.33868 1.297257,0.55731 0.49684,0.11935 1.10857,0.23964 0.6213,0.12043 1.03214,0.21982 1.25167,0.29836 1.92524,1.00333 0.67348,0.71453 0.66311,1.88259 z m 9.89773,-0.78927 q 0.12568,1.45952 -1.00541,2.49865 -1.1215,1.03832 -3.21061,1.21813 -1.18289,0.10173 -2.1988,-0.0894 -1.00717,-0.20162 -1.70368,-0.47802 l -0.17324,-2.0128 0.0954,-0.007 q 0.90401,0.56606 1.97664,0.85814 1.07182,0.28253 2.02575,0.20044 1.18288,-0.10174 1.81781,-0.54087 0.63491,-0.43905 0.5643,-1.25942 -0.0542,-0.62961 -0.44461,-0.92275 -0.3904,-0.29313 -1.44036,-0.4334 -0.38896,-0.0529 -1.01889,-0.1141 -0.62037,-0.062 -1.13745,-0.15193 -1.4343,-0.25135 -2.08733,-0.91589 -0.64429,-0.67492 -0.7346,-1.72425 -0.0567,-0.6582 0.16036,-1.26311 0.22655,-0.6057 0.74043,-1.11121 0.49562,-0.49433 1.29383,-0.82251 0.80694,-0.33852 1.82765,-0.42638 0.95393,-0.0822 1.94748,0.0726 1.00226,0.14435 1.67968,0.42242 l 0.16503,1.9174 -0.0954,0.007 q -0.73036,-0.44646 -1.74247,-0.70532 -1.01292,-0.26839 -1.95733,-0.1871 -0.98254,0.0846 -1.62699,0.52443 -0.6453,0.43033 -0.58124,1.17441 0.0567,0.6582 0.49558,0.95678 0.42938,0.2994 1.34416,0.43208 0.50589,0.0717 1.12626,0.13371 0.62992,0.0611 1.04831,0.12121 1.2743,0.17862 2.01154,0.81669 0.73804,0.64762 0.8382,1.81143 z m 20.12954,-2.3634 q -0.4498,0.3575 -0.81444,0.66259 -0.35543,0.30266 -0.96498,0.69275 -0.51761,0.326 -1.1518,0.62356 -0.62246,0.30437 -1.41818,0.51613 -1.49894,0.39888 -2.84033,0.31 -1.33462,-0.10068 -2.4802,-0.75679 -1.12216,-0.64263 -1.98131,-1.86054 -0.8616,-1.22718 -1.33929,-3.02217 -0.45306,-1.70248 -0.32894,-3.17216 0.12413,-1.46966 0.78463,-2.63623 0.64014,-1.13141 1.75441,-1.93325 1.12353,-0.80429 2.64097,-1.20811 1.1103,-0.29547 2.28277,-0.32016 1.18173,-0.0271 2.71234,0.28881 l 0.57865,2.17435 -0.13881,0.0369 q -1.39168,-0.65016 -2.62698,-0.78709 -1.2353,-0.13695 -2.51215,0.20285 -1.04555,0.27824 -1.79643,0.84466 -0.74409,0.5547 -1.21142,1.44198 -0.45378,0.86384 -0.53145,2.02391 -0.0709,1.14837 0.29844,2.53626 0.38659,1.45267 1.05343,2.39478 0.6761,0.93969 1.47085,1.43163 0.82988,0.51233 1.77903,0.61645 0.95592,0.0924 1.9182,-0.1637 1.32311,-0.35211 2.35903,-1.11327 1.03593,-0.76116 1.80316,-1.93632 l 0.12955,-0.0344 z m 9.14992,-8.2364 q 0.96473,2.42932 0.27726,4.33004 -0.68745,1.90073 -2.77863,2.73116 -2.10899,0.83752 -3.91315,-0.0737 -1.79524,-0.91478 -2.75998,-3.34411 -0.96473,-2.42933 -0.28615,-4.32652 0.68393,-1.90962 2.79291,-2.74713 2.09117,-0.83044 3.89887,0.0897 1.80415,0.91126 2.76887,3.34059 z m -1.72634,0.68555 q -0.76682,-1.93101 -1.89427,-2.56499 -1.13097,-0.64288 -2.47466,-0.10931 -1.36149,0.54066 -1.7433,1.78429 -0.37643,1.23121 0.3904,3.1622 0.74212,1.86872 1.88369,2.5383 1.13802,0.66067 2.49062,0.12352 1.3348,-0.53008 1.71307,-1.7826 0.38362,-1.26496 -0.36555,-3.15147 z m 5.43847,-11.32911 -0.0855,0.0429 q -0.30398,0.0559 -0.77059,0.19331 -0.47091,0.12877 -0.79621,0.29182 -1.03579,0.51895 -1.275,1.21709 -0.23495,0.6853 0.36548,1.88374 l 0.16299,0.3253 2.90195,-1.45394 0.67764,1.35254 -2.85059,1.42819 4.11303,8.20936 -1.60934,0.80631 -4.11304,-8.20936 -1.08714,0.54469 -0.67766,-1.35253 1.08717,-0.54469 -0.15869,-0.31672 q -0.85349,-1.70352 -0.46064,-3.0355 0.38856,-1.34056 1.98933,-2.14259 0.53931,-0.2702 0.99306,-0.43327 0.46231,-0.16738 0.85615,-0.27903 z m 5.20634,-3.11182 -0.0828,0.0482 q -0.29981,0.075 -0.7568,0.24169 -0.4618,0.15838 -0.77613,0.34162 -1.00089,0.58346 -1.19543,1.29536 -0.19112,0.69878 0.48397,1.85684 l 0.18324,0.31433 2.80412,-1.63469 0.76188,1.30693 -2.75449,1.60574 4.62435,7.9326 -1.55508,0.90654 -4.62436,-7.9326 -1.0505,0.61241 -0.76187,-1.30693 1.0505,-0.6124 -0.17842,-0.30605 q -0.95958,-1.64607 -0.65182,-3.00026 0.30295,-1.36246 1.84977,-2.26419 0.52111,-0.30379 0.96362,-0.49526 0.45079,-0.19628 0.83679,-0.33263 z m 11.94136,1.37531 -6.44507,4.53368 q 0.56738,0.80661 1.23433,1.23884 0.66142,0.4244 1.35425,0.51066 0.67164,0.0894 1.35985,-0.1138 0.69607,-0.20867 1.36955,-0.68241 0.89276,-0.62799 1.54545,-1.6139 0.65501,-0.99925 0.79635,-1.61375 l 0.0783,-0.0551 1.12931,1.60539 q -0.52362,0.83657 -1.15018,1.59338 -0.62656,0.75682 -1.48016,1.35726 -2.17707,1.53142 -4.22505,1.21611 -2.05348,-0.32315 -3.57938,-2.4924 -1.50941,-2.14575 -1.22945,-4.22736 0.28777,-2.08714 2.19858,-3.43127 1.76985,-1.24496 3.45241,-0.88331 1.69038,0.35614 3.029,2.25912 z m -2.22636,-0.11951 q -0.82313,-1.15351 -1.84884,-1.3802 -1.01789,-0.23219 -2.19257,0.59411 -1.1825,0.83183 -1.39704,2.02458 -0.20669,1.18726 0.42647,2.28708 z m 10.6455,-7.16908 -5.92347,5.19671 q 0.65037,0.74133 1.35971,1.09979 0.703,0.35126 1.40106,0.36297 0.67735,0.0171 1.33991,-0.25846 0.66976,-0.2819 1.28873,-0.82492 0.82052,-0.71984 1.36408,-1.76986 0.54444,-1.06356 0.61928,-1.68965 l 0.072,-0.0631 1.29444,1.47547 q -0.43117,0.88776 -0.97322,1.70722 -0.54208,0.81944 -1.32658,1.5077 -2.00089,1.7554 -4.07083,1.66081 -2.07627,-0.10174 -3.82534,-2.09545 -1.73013,-1.9721 -1.67433,-4.07172 0.063,-2.10593 1.81917,-3.64663 1.62664,-1.42704 3.33821,-1.24733 1.71876,0.17339 3.25316,1.92237 z m -2.22639,0.11904 q -0.94172,-1.0589 -1.98579,-1.17462 -1.03688,-0.12198 -2.11649,0.82509 -1.08681,0.95347 -1.1726,2.16234 -0.0786,1.20255 0.66853,2.22838 z"
         id="text411"
         aria-label="BeanBliss Coffee" />
    </g>
  </g>
  <metadata
     id="metadata16">
    <rdf:RDF>
      <cc:Work
         rdf:about="" />
    </rdf:RDF>
  </metadata>
</svg>
